HIERARCHY
ROOT hip
{
  OFFSET 0 90.174 2.4664
  CHANNELS 6 Xposition Yposition Zposition Zrotation Xrotation Yrotation
  JOINT abdomen
  {
    OFFSET 0 -1.186 -1.5018
    CHANNELS 6 Xposition Yposition Zposition Zrotation Xrotation Yrotation
    JOINT abdomen2
    {
      OFFSET 0 9.964 0.2134
      CHANNELS 6 Xposition Yposition Zposition Zrotation Xrotation Yrotation
      JOINT chest
      {
        OFFSET 0 13.134 -3.2573
        CHANNELS 6 Xposition Yposition Zposition Zrotation Xrotation Yrotation
        JOINT neck
        {
          OFFSET 0 20.686 -1.6905
          CHANNELS 6 Xposition Yposition Zposition Zrotation Xrotation Yrotation
          JOINT head
          {
            OFFSET 0 7.238 -0.1237
            CHANNELS 6 Xposition Yposition Zposition Zrotation Xrotation Yrotation
            End Site
            {
              OFFSET 0 0 0
            }
          }
        }
        JOINT lCollar
        {
          OFFSET 1.7069 20.075 5.0056
          CHANNELS 6 Xposition Yposition Zposition Zrotation Xrotation Yrotation
          JOINT lShldr
          {
            OFFSET 13.6458 -0.047 -4.849
            CHANNELS 6 Xposition Yposition Zposition Zrotation Xrotation Yrotation
            JOINT lForeArm
            {
              OFFSET 28.3255 -0.9759 2.2888
              CHANNELS 6 Xposition Yposition Zposition Zrotation Xrotation Yrotation
              JOINT lHand
              {
                OFFSET 22.1583 -0.53 10.8316
                CHANNELS 6 Xposition Yposition Zposition Zrotation Xrotation Yrotation
                JOINT lThumb1
                {
                  OFFSET 0.786 0.112 2.5817
                  CHANNELS 6 Xposition Yposition Zposition Zrotation Xrotation Yrotation
                  JOINT lThumb2
                  {
                    OFFSET 0.3601 -0.878 4.2331
                    CHANNELS 6 Xposition Yposition Zposition Zrotation Xrotation Yrotation
                    JOINT lThumb2_End
                    {
                      OFFSET 1.8127 -1.216 2.2227
                      CHANNELS 6 Xposition Yposition Zposition Zrotation Xrotation Yrotation
                      End Site
                      {
                        OFFSET 0.0181 -0.0122 0.0222
                      }
                    }
                  }
                }
                JOINT lCarpal1
                {
                  OFFSET 0.9571 1.114 1.7695
                  CHANNELS 6 Xposition Yposition Zposition Zrotation Xrotation Yrotation
                  JOINT lIndex1
                  {
                    OFFSET 4.1246 0.487 4.1451
                    CHANNELS 6 Xposition Yposition Zposition Zrotation Xrotation Yrotation
                    JOINT lIndex2
                    {
                      OFFSET 3.4052 -1.454 2.7682
                      CHANNELS 6 Xposition Yposition Zposition Zrotation Xrotation Yrotation
                      JOINT lIndex2_End
                      {
                        OFFSET 1.4531 -1.795 1.2713
                        CHANNELS 6 Xposition Yposition Zposition Zrotation Xrotation Yrotation
                        End Site
                        {
                          OFFSET 0.0145 -0.0179 0.0127
                        }
                      }
                    }
                  }
                  JOINT lMid1
                  {
                    OFFSET 5.6954 0.21 2.1184
                    CHANNELS 6 Xposition Yposition Zposition Zrotation Xrotation Yrotation
                    JOINT lMid2
                    {
                      OFFSET 3.9766 -1.54 2.3863
                      CHANNELS 6 Xposition Yposition Zposition Zrotation Xrotation Yrotation
                      JOINT lMid2_End
                      {
                        OFFSET 1.4042 -1.926 1.125
                        CHANNELS 6 Xposition Yposition Zposition Zrotation Xrotation Yrotation
                        End Site
                        {
                          OFFSET 0.014 -0.0193 0.0113
                        }
                      }
                    }
                  }
                }
                JOINT lCarpal2
                {
                  OFFSET 2.0956 0.66 -0.3894
                  CHANNELS 6 Xposition Yposition Zposition Zrotation Xrotation Yrotation
                  JOINT lRing1
                  {
                    OFFSET 5.0395 -0.09 2.4971
                    CHANNELS 6 Xposition Yposition Zposition Zrotation Xrotation Yrotation
                    JOINT lRing2
                    {
                      OFFSET 3.7921 -1.552 1.4806
                      CHANNELS 6 Xposition Yposition Zposition Zrotation Xrotation Yrotation
                      JOINT lRing2_End
                      {
                        OFFSET 1.4655 -1.808 0.9609
                        CHANNELS 6 Xposition Yposition Zposition Zrotation Xrotation Yrotation
                        End Site
                        {
                          OFFSET 0.0147 -0.0181 0.0096
                        }
                      }
                    }
                  }
                  JOINT lPinky1
                  {
                    OFFSET 4.9141 -1.269 0.3591
                    CHANNELS 6 Xposition Yposition Zposition Zrotation Xrotation Yrotation
                    JOINT lPinky2
                    {
                      OFFSET 3.1477 -1.685 0.8462
                      CHANNELS 6 Xposition Yposition Zposition Zrotation Xrotation Yrotation
                      JOINT lPinky2_End
                      {
                        OFFSET 0.8055 -1.585 0.7955
                        CHANNELS 6 Xposition Yposition Zposition Zrotation Xrotation Yrotation
                        End Site
                        {
                          OFFSET 0.0081 -0.0158 0.008
                        }
                      }
                    }
                  }
                }
              }
            }
          }
        }
        JOINT rCollar
        {
          OFFSET -1.7069 20.075 5.0056
          CHANNELS 6 Xposition Yposition Zposition Zrotation Xrotation Yrotation
          JOINT rShldr
          {
            OFFSET -13.6458 -0.047 -4.849
            CHANNELS 6 Xposition Yposition Zposition Zrotation Xrotation Yrotation
            JOINT rForeArm
            {
              OFFSET -28.3255 -0.9759 2.2888
              CHANNELS 6 Xposition Yposition Zposition Zrotation Xrotation Yrotation
              JOINT rHand
              {
                OFFSET -22.1583 -0.53 10.8316
                CHANNELS 6 Xposition Yposition Zposition Zrotation Xrotation Yrotation
                JOINT rThumb1
                {
                  OFFSET -0.786 0.112 2.5817
                  CHANNELS 6 Xposition Yposition Zposition Zrotation Xrotation Yrotation
                  JOINT rThumb2
                  {
                    OFFSET -0.3601 -0.878 4.2331
                    CHANNELS 6 Xposition Yposition Zposition Zrotation Xrotation Yrotation
                    JOINT rThumb2_End
                    {
                      OFFSET -1.8127 -1.216 2.2227
                      CHANNELS 6 Xposition Yposition Zposition Zrotation Xrotation Yrotation
                      End Site
                      {
                        OFFSET -0.0181 -0.0122 0.0222
                      }
                    }
                  }
                }
                JOINT rCarpal1
                {
                  OFFSET -0.9571 1.114 1.7695
                  CHANNELS 6 Xposition Yposition Zposition Zrotation Xrotation Yrotation
                  JOINT rIndex1
                  {
                    OFFSET -4.1246 0.487 4.1451
                    CHANNELS 6 Xposition Yposition Zposition Zrotation Xrotation Yrotation
                    JOINT rIndex2
                    {
                      OFFSET -3.4052 -1.454 2.7682
                      CHANNELS 6 Xposition Yposition Zposition Zrotation Xrotation Yrotation
                      JOINT rIndex2_End
                      {
                        OFFSET -1.4531 -1.795 1.2713
                        CHANNELS 6 Xposition Yposition Zposition Zrotation Xrotation Yrotation
                        End Site
                        {
                          OFFSET -0.0145 -0.018 0.0127
                        }
                      }
                    }
                  }
                  JOINT rMid1
                  {
                    OFFSET -5.6954 0.21 2.1184
                    CHANNELS 6 Xposition Yposition Zposition Zrotation Xrotation Yrotation
                    JOINT rMid2
                    {
                      OFFSET -3.9766 -1.54 2.3863
                      CHANNELS 6 Xposition Yposition Zposition Zrotation Xrotation Yrotation
                      JOINT rMid2_End
                      {
                        OFFSET -1.4042 -1.926 1.125
                        CHANNELS 6 Xposition Yposition Zposition Zrotation Xrotation Yrotation
                        End Site
                        {
                          OFFSET -0.014 -0.0193 0.0113
                        }
                      }
                    }
                  }
                }
                JOINT rCarpal2
                {
                  OFFSET -2.0956 0.66 -0.3894
                  CHANNELS 6 Xposition Yposition Zposition Zrotation Xrotation Yrotation
                  JOINT rRing1
                  {
                    OFFSET -5.0395 -0.09 2.4971
                    CHANNELS 6 Xposition Yposition Zposition Zrotation Xrotation Yrotation
                    JOINT rRing2
                    {
                      OFFSET -3.7921 -1.552 1.4806
                      CHANNELS 6 Xposition Yposition Zposition Zrotation Xrotation Yrotation
                      JOINT rRing2_End
                      {
                        OFFSET -1.4655 -1.808 0.9609
                        CHANNELS 6 Xposition Yposition Zposition Zrotation Xrotation Yrotation
                        End Site
                        {
                          OFFSET -0.0147 -0.0181 0.0096
                        }
                      }
                    }
                  }
                  JOINT rPinky1
                  {
                    OFFSET -4.9141 -1.269 0.3592
                    CHANNELS 6 Xposition Yposition Zposition Zrotation Xrotation Yrotation
                    JOINT rPinky2
                    {
                      OFFSET -3.1477 -1.685 0.8462
                      CHANNELS 6 Xposition Yposition Zposition Zrotation Xrotation Yrotation
                      JOINT rPinky2_End
                      {
                        OFFSET -0.8055 -1.585 0.7955
                        CHANNELS 6 Xposition Yposition Zposition Zrotation Xrotation Yrotation
                        End Site
                        {
                          OFFSET -0.0081 -0.0158 0.008
                        }
                      }
                    }
                  }
                }
              }
            }
          }
        }
      }
    }
  }
  JOINT lThigh
  {
    OFFSET 8.367 -8.2066 0.5982
    CHANNELS 6 Xposition Yposition Zposition Zrotation Xrotation Yrotation
    JOINT lShin
    {
      OFFSET 2.1923 -43.463 -0.4932
      CHANNELS 6 Xposition Yposition Zposition Zrotation Xrotation Yrotation
      JOINT lFoot
      {
        OFFSET 0.7333 -45.8593 -2.6451
        CHANNELS 6 Xposition Yposition Zposition Zrotation Xrotation Yrotation
        End Site
        {
          OFFSET 2.6618 -4.2699 12.3931
        }
      }
    }
  }
  JOINT rThigh
  {
    OFFSET -8.367 -8.2066 0.5982
    CHANNELS 6 Xposition Yposition Zposition Zrotation Xrotation Yrotation
    JOINT rShin
    {
      OFFSET -2.1923 -43.463 -0.4931
      CHANNELS 6 Xposition Yposition Zposition Zrotation Xrotation Yrotation
      JOINT rFoot
      {
        OFFSET -0.7333 -45.8593 -2.6451
        CHANNELS 6 Xposition Yposition Zposition Zrotation Xrotation Yrotation
        End Site
        {
          OFFSET -2.6618 -4.2699 12.3931
        }
      }
    }
  }
}
MOTION
Frames:	4
Frame Time:	0.0333333
0.00750448 75.7908 63.164 180 75.004 -180 0 -1.186 -1.5018 -0.3781 -4.12641 -0.700347 -2.22045e-016 9.964 0.2134 -0.810056 -8.24779 -1.43366 -8.88178e-016 13.134 -3.2573 -0.810055 -8.24781 -1.43366 -8.88178e-016 20.686 -1.6905 1.9813e-005 0.0151346 -3.17229e-006 0 7.238 -0.1237 1.89776e-007 0.0192369 -2.81313e-007 1.7069 20.075 5.0056 10.4773 8.53606 -45.0009 13.6458 -0.047 -4.849 -14.4874 -26.9428 -19.7156 28.3255 -0.9759 2.2888 14.3151 -4.01729 -10.0605 22.1583 -0.53 10.8316 34.4909 -19.8957 -2.48512 0.786 0.112 2.5817 -3.99923e-007 7.14718e-007 2.22049e-007 0.3601 -0.878 4.2331 -3.18055e-015 1.59028e-015 -6.36111e-015 1.8127 -1.216 2.2227 -6.36111e-015 -1.59028e-015 6.36111e-015 0.9571 1.114 1.7695 3.18055e-015 1.59028e-015 -3.18055e-015 4.1246 0.487 4.1451 -3.99923e-007 7.14718e-007 2.22049e-007 3.4052 -1.454 2.7682 0 1.59028e-015 -0 1.4531 -1.795 1.2713 -3.18055e-015 1.59028e-015 -6.36111e-015 5.6954 0.21 2.1184 -3.99923e-007 7.14718e-007 2.22049e-007 3.9766 -1.54 2.3863 0 1.59028e-015 -0 1.4042 -1.926 1.125 -3.18055e-015 1.59028e-015 -6.36111e-015 2.0956 0.66 -0.3894 3.18055e-015 1.59028e-015 -3.18055e-015 5.0395 -0.09 2.4971 -3.99923e-007 7.14718e-007 2.22049e-007 3.7921 -1.552 1.4806 0 1.59028e-015 -0 1.4655 -1.808 0.9609 -3.18055e-015 1.59028e-015 -6.36111e-015 4.9141 -1.269 0.3591 -3.99923e-007 7.14718e-007 2.22049e-007 3.1477 -1.685 0.8462 0 1.59028e-015 -0 0.8055 -1.585 0.7955 -3.18055e-015 1.59028e-015 -6.36111e-015 -1.7069 20.075 5.0056 -10.3475 8.51051 44.4977 -13.6458 -0.047 -4.849 15.4422 -26.4204 22.0974 -28.3255 -0.9759 2.2888 -16.4298 -4.58326 10.3985 -22.1583 -0.53 10.8316 -34.726 -19.411 1.45825 -0.786 0.112 2.5817 -3.18055e-015 -6.36111e-015 -3.18055e-015 -0.3601 -0.878 4.2331 -3.18055e-015 -6.36111e-015 -3.18055e-015 -1.8127 -1.216 2.2227 8.44258e-007 1.42472e-006 -3.50485e-007 -0.9571 1.114 1.7695 -3.18055e-015 -1.59028e-015 -3.18055e-015 -4.1246 0.487 4.1451 1.41245e-030 -1.27222e-014 6.36111e-015 -3.4052 -1.454 2.7682 -6.36111e-015 -3.18055e-015 6.36111e-015 -1.4531 -1.795 1.2713 8.44258e-007 1.42472e-006 -3.50485e-007 -5.6954 0.21 2.1184 1.41245e-030 -1.27222e-014 6.36111e-015 -3.9766 -1.54 2.3863 -6.36111e-015 -3.18055e-015 6.36111e-015 -1.4042 -1.926 1.125 8.44258e-007 1.42472e-006 -3.50485e-007 -2.0956 0.66 -0.3894 -3.18055e-015 -1.59028e-015 -3.18055e-015 -5.0395 -0.09 2.4971 1.41245e-030 -1.27222e-014 6.36111e-015 -3.7921 -1.552 1.4806 -6.36111e-015 -3.18055e-015 6.36111e-015 -1.4655 -1.808 0.9609 8.44258e-007 1.42472e-006 -3.50485e-007 -4.9141 -1.269 0.3592 1.41245e-030 -1.27222e-014 6.36111e-015 -3.1477 -1.685 0.8462 -6.36111e-015 -3.18055e-015 6.36111e-015 -0.8055 -1.585 0.7955 8.44258e-007 1.42472e-006 -3.50485e-007 8.367 -8.2066 0.5982 170.588 -75.9407 171.198 2.1923 -43.463 -0.4932 -5.57342 0.767445 2.34006 0.7333 -45.8593 -2.6451 9.2304 41.0799 0.952463 -8.367 -8.2066 0.5982 -171.589 -76.6626 -170.342 -2.1923 -43.463 -0.4931 4.69674 -0.586707 -2.23645 -0.7333 -45.8593 -2.6451 -8.99254 39.8084 -1.20475 
0.00750218 75.7906 63.279 180 75.004 -180 8.67362e-019 -1.186 -1.5018 -0.376123 -3.97154 -0.701414 0 9.964 0.2134 -0.803994 -7.93804 -1.4342 0 13.134 -3.2573 -0.803994 -7.93807 -1.4342 0 20.686 -1.6905 4.49727e-007 0.0141136 2.07319e-006 0 7.238 -0.1237 1.09313e-007 0.0179541 1.86364e-007 1.7069 20.075 5.0056 10.6389 8.05341 -44.8963 13.6458 -0.047 -4.849 -14.4874 -26.9428 -19.7156 28.3255 -0.9759 2.2888 14.3151 -4.0173 -10.0605 22.1583 -0.53 10.8316 34.6754 -20.1104 -2.36728 0.786 0.112 2.5817 3.18055e-015 0 6.36111e-015 0.3601 -0.878 4.2331 -3.99856e-007 7.14653e-007 2.22254e-007 1.8127 -1.216 2.2227 5.29669e-031 -9.54166e-015 3.18055e-015 0.9571 1.114 1.7695 3.18055e-015 0 3.18055e-015 4.1246 0.487 4.1451 9.54166e-015 4.77083e-015 1.27222e-014 3.4052 -1.454 2.7682 -3.99856e-007 7.14653e-007 2.22254e-007 1.4531 -1.795 1.2713 6.36111e-015 -6.36111e-015 3.18055e-015 5.6954 0.21 2.1184 9.54166e-015 4.77083e-015 1.27222e-014 3.9766 -1.54 2.3863 -3.99856e-007 7.14653e-007 2.22254e-007 1.4042 -1.926 1.125 6.36111e-015 -6.36111e-015 3.18055e-015 2.0956 0.66 -0.3894 3.18055e-015 0 3.18055e-015 5.0395 -0.09 2.4971 9.54166e-015 4.77083e-015 1.27222e-014 3.7921 -1.552 1.4806 -3.99856e-007 7.14653e-007 2.22254e-007 1.4655 -1.808 0.9609 6.36111e-015 -6.36111e-015 3.18055e-015 4.9141 -1.269 0.3591 9.54166e-015 4.77083e-015 1.27222e-014 3.1477 -1.685 0.8462 -3.99856e-007 7.14653e-007 2.22254e-007 0.8055 -1.585 0.7955 6.36111e-015 -6.36111e-015 3.18055e-015 -1.7069 20.075 5.0056 -10.4966 8.04749 44.3638 -13.6458 -0.047 -4.849 15.4422 -26.4204 22.0974 -28.3255 -0.9759 2.2888 -16.4298 -4.58328 10.3986 -22.1583 -0.53 10.8316 -34.94 -19.602 1.27364 -0.786 0.112 2.5817 -3.18055e-015 0 -0 -0.3601 -0.878 4.2331 -8.43675e-007 -1.42495e-006 3.50119e-007 -1.8127 -1.216 2.2227 -8.43675e-007 -1.42495e-006 3.50119e-007 -0.9571 1.114 1.7695 -3.18055e-015 3.18055e-015 -3.18055e-015 -4.1246 0.487 4.1451 -6.36111e-015 -1.27222e-014 -3.18055e-015 -3.4052 -1.454 2.7682 -8.43675e-007 -1.42495e-006 3.50119e-007 -1.4531 -1.795 1.2713 -8.43675e-007 -1.42495e-006 3.50119e-007 -5.6954 0.21 2.1184 -6.36111e-015 -1.27222e-014 -3.18055e-015 -3.9766 -1.54 2.3863 -8.43675e-007 -1.42495e-006 3.50119e-007 -1.4042 -1.926 1.125 -8.43675e-007 -1.42495e-006 3.50119e-007 -2.0956 0.66 -0.3894 -3.18055e-015 3.18055e-015 -3.18055e-015 -5.0395 -0.09 2.4971 -6.36111e-015 -1.27222e-014 -3.18055e-015 -3.7921 -1.552 1.4806 -8.43675e-007 -1.42495e-006 3.50119e-007 -1.4655 -1.808 0.9609 -8.43675e-007 -1.42495e-006 3.50119e-007 -4.9141 -1.269 0.3592 -6.36111e-015 -1.27222e-014 -3.18055e-015 -3.1477 -1.685 0.8462 -8.43675e-007 -1.42495e-006 3.50119e-007 -0.8055 -1.585 0.7955 -8.43675e-007 -1.42495e-006 3.50119e-007 8.367 -8.2066 0.5982 170.586 -75.9428 171.196 2.1923 -43.463 -0.4932 -5.57374 0.767868 2.33448 0.7333 -45.8593 -2.6451 9.31629 40.9683 0.850609 -8.367 -8.2066 0.5982 -171.589 -76.6623 -170.342 -2.1923 -43.463 -0.4931 4.69674 -0.586153 -2.23649 -0.7333 -45.8593 -2.6451 -8.99251 39.8082 -1.20478 
0.00749951 75.7903 63.394 180 75.004 -180 0 -1.186 -1.5018 -0.374082 -3.8168 -0.702399 0 9.964 0.2134 -0.797813 -7.62858 -1.43461 0 13.134 -3.2573 -0.797813 -7.62861 -1.43461 -8.88178e-016 20.686 -1.6905 -2.46784e-006 0.0130703 -1.38888e-006 1.77636e-015 7.238 -0.1237 8.55584e-007 0.0166679 -3.22009e-008 1.7069 20.075 5.0056 10.8013 7.57105 -44.7905 13.6458 -0.047 -4.849 -14.4874 -26.9428 -19.7156 28.3255 -0.9759 2.2888 14.3151 -4.0173 -10.0605 22.1583 -0.53 10.8316 34.8607 -20.3249 -2.24854 0.786 0.112 2.5817 -3.99797e-007 7.14583e-007 2.22466e-007 0.3601 -0.878 4.2331 -7.99593e-007 1.42917e-006 4.44932e-007 1.8127 -1.216 2.2227 3.18055e-015 1.59028e-015 3.18055e-015 0.9571 1.114 1.7695 3.18055e-015 -1.59028e-015 3.18055e-015 4.1246 0.487 4.1451 -3.99797e-007 7.14583e-007 2.22466e-007 3.4052 -1.454 2.7682 -7.99593e-007 1.42917e-006 4.44932e-007 1.4531 -1.795 1.2713 -3.18055e-015 1.59028e-015 -0 5.6954 0.21 2.1184 -3.99797e-007 7.14583e-007 2.22466e-007 3.9766 -1.54 2.3863 -7.99593e-007 1.42917e-006 4.44932e-007 1.4042 -1.926 1.125 -3.18055e-015 1.59028e-015 -0 2.0956 0.66 -0.3894 3.18055e-015 -1.59028e-015 3.18055e-015 5.0395 -0.09 2.4971 -3.99797e-007 7.14583e-007 2.22466e-007 3.7921 -1.552 1.4806 -7.99593e-007 1.42917e-006 4.44932e-007 1.4655 -1.808 0.9609 -3.18055e-015 1.59028e-015 -0 4.9141 -1.269 0.3591 -3.99797e-007 7.14583e-007 2.22466e-007 3.1477 -1.685 0.8462 -7.99593e-007 1.42917e-006 4.44932e-007 0.8055 -1.585 0.7955 -3.18055e-015 1.59028e-015 -0 -1.7069 20.075 5.0056 -10.6466 7.58482 44.2289 -13.6458 -0.047 -4.849 15.4422 -26.4204 22.0974 -28.3255 -0.9759 2.2888 -16.4298 -4.58326 10.3986 -22.1583 -0.53 10.8316 -35.1549 -19.7923 1.0881 -0.786 0.112 2.5817 -2.23029e-006 -1.65606e-006 -2.08227e-006 -0.3601 -0.878 4.2331 -1.32417e-030 7.95139e-015 9.54166e-015 -1.8127 -1.216 2.2227 3.18055e-015 7.95139e-015 3.18055e-015 -0.9571 1.114 1.7695 -8.82781e-032 -1.59028e-015 -3.18055e-015 -4.1246 0.487 4.1451 -2.23029e-006 -1.65606e-006 -2.08227e-006 -3.4052 -1.454 2.7682 -4.41391e-031 7.95139e-015 3.18055e-015 -1.4531 -1.795 1.2713 3.18055e-015 7.95139e-015 -0 -5.6954 0.21 2.1184 -2.23029e-006 -1.65606e-006 -2.08227e-006 -3.9766 -1.54 2.3863 -4.41391e-031 7.95139e-015 3.18055e-015 -1.4042 -1.926 1.125 3.18055e-015 7.95139e-015 -0 -2.0956 0.66 -0.3894 -8.82781e-032 -1.59028e-015 -3.18055e-015 -5.0395 -0.09 2.4971 -2.23029e-006 -1.65606e-006 -2.08227e-006 -3.7921 -1.552 1.4806 -4.41391e-031 7.95139e-015 3.18055e-015 -1.4655 -1.808 0.9609 3.18055e-015 7.95139e-015 -0 -4.9141 -1.269 0.3592 -2.23029e-006 -1.65606e-006 -2.08227e-006 -3.1477 -1.685 0.8462 -4.41391e-031 7.95139e-015 3.18055e-015 -0.8055 -1.585 0.7955 3.18055e-015 7.95139e-015 -0 8.367 -8.2066 0.5982 170.583 -75.9453 171.194 2.1923 -43.463 -0.4932 -5.57407 0.767602 2.32885 0.7333 -45.8593 -2.6451 9.40182 40.8569 0.749097 -8.367 -8.2066 0.5982 -171.589 -76.6626 -170.342 -2.1923 -43.463 -0.4931 4.69674 -0.58669 -2.23645 -0.7333 -45.8593 -2.6451 -8.99253 39.8084 -1.20476 
0.00749685 75.7901 63.509 180 75.004 -180 0 -1.186 -1.5018 -0.371981 -3.66227 -0.703304 0 9.964 0.2134 -0.791519 -7.3196 -1.43489 0 13.134 -3.2573 -0.791519 -7.31961 -1.43489 8.88178e-016 20.686 -1.6905 8.70908e-006 0.012043 -2.26543e-006 0 7.238 -0.1237 -5.96224e-007 0.0154025 -2.09501e-007 1.7069 20.075 5.0056 10.9643 7.08904 -44.6835 13.6458 -0.047 -4.849 -14.4874 -26.9428 -19.7156 28.3255 -0.9759 2.2888 14.3151 -4.01729 -10.0606 22.1583 -0.53 10.8316 35.0466 -20.5389 -2.12892 0.786 0.112 2.5817 -8.82781e-032 -1.59028e-015 -3.18055e-015 0.3601 -0.878 4.2331 -3.18055e-015 1.59028e-015 -6.36111e-015 1.8127 -1.216 2.2227 -3.18055e-015 -4.77083e-015 -6.36111e-015 0.9571 1.114 1.7695 -8.82781e-032 -1.59028e-015 -3.18055e-015 4.1246 0.487 4.1451 -6.36111e-015 0 1.27222e-014 3.4052 -1.454 2.7682 9.54166e-015 1.59028e-015 -3.18055e-015 1.4531 -1.795 1.2713 -3.18055e-015 1.59028e-015 -9.54166e-015 5.6954 0.21 2.1184 -6.36111e-015 0 1.27222e-014 3.9766 -1.54 2.3863 9.54166e-015 1.59028e-015 -3.18055e-015 1.4042 -1.926 1.125 -3.18055e-015 1.59028e-015 -9.54166e-015 2.0956 0.66 -0.3894 -8.82781e-032 -1.59028e-015 -3.18055e-015 5.0395 -0.09 2.4971 -6.36111e-015 0 1.27222e-014 3.7921 -1.552 1.4806 9.54166e-015 1.59028e-015 -3.18055e-015 1.4655 -1.808 0.9609 -3.18055e-015 1.59028e-015 -9.54166e-015 4.9141 -1.269 0.3591 -6.36111e-015 0 1.27222e-014 3.1477 -1.685 0.8462 9.54166e-015 1.59028e-015 -3.18055e-015 0.8055 -1.585 0.7955 -3.18055e-015 1.59028e-015 -9.54166e-015 -1.7069 20.075 5.0056 -10.7975 7.12255 44.093 -13.6458 -0.047 -4.849 15.4422 -26.4204 22.0974 -28.3255 -0.9759 2.2888 -16.4298 -4.58326 10.3986 -22.1583 -0.53 10.8316 -35.3708 -19.9819 0.901562 -0.786 0.112 2.5817 -1.83947e-006 4.72912e-007 4.12913e-007 -0.3601 -0.878 4.2331 -6.36111e-015 -1.59028e-015 -3.18055e-015 -1.8127 -1.216 2.2227 -3.53113e-031 -3.18055e-015 -6.36111e-015 -0.9571 1.114 1.7695 3.18055e-015 0 -0 -4.1246 0.487 4.1451 -1.83947e-006 4.72912e-007 4.12913e-007 -3.4052 -1.454 2.7682 -3.18055e-015 -1.59028e-015 -0 -1.4531 -1.795 1.2713 -0 -4.77083e-015 -0 -5.6954 0.21 2.1184 -1.83947e-006 4.72912e-007 4.12913e-007 -3.9766 -1.54 2.3863 -3.18055e-015 -1.59028e-015 -0 -1.4042 -1.926 1.125 -0 -4.77083e-015 -0 -2.0956 0.66 -0.3894 3.18055e-015 0 -0 -5.0395 -0.09 2.4971 -1.83947e-006 4.72912e-007 4.12913e-007 -3.7921 -1.552 1.4806 -3.18055e-015 -1.59028e-015 -0 -1.4655 -1.808 0.9609 -0 -4.77083e-015 -0 -4.9141 -1.269 0.3592 -1.83947e-006 4.72912e-007 4.12913e-007 -3.1477 -1.685 0.8462 -3.18055e-015 -1.59028e-015 -0 -0.8055 -1.585 0.7955 -0 -4.77083e-015 -0 8.367 -8.2066 0.5982 170.581 -75.9477 171.191 2.1923 -43.463 -0.4932 -5.5744 0.767671 2.32325 0.7333 -45.8593 -2.6451 9.48692 40.7453 0.64801 -8.367 -8.2066 0.5982 -171.589 -76.6626 -170.342 -2.1923 -43.463 -0.4931 4.69674 -0.58669 -2.23645 -0.7333 -45.8593 -2.6451 -8.99253 39.8084 -1.20476 
